<svg xmlns="http://www.w3.org/2000/svg" xmlns:xlink="http://www.w3.org/1999/xlink" viewBox="0,0,256,256" width="200px" height="200px"><g fill="none" fill-rule="nonzero" stroke="none" stroke-width="1" stroke-linecap="butt" stroke-linejoin="miter" stroke-miterlimit="10" stroke-dasharray="" stroke-dashoffset="0" font-family="none" font-weight="none" font-size="none" text-anchor="none" style="mix-blend-mode: normal"><g transform="scale(5.12,5.12)"><path d="M24.969,33.926l-12.444,-13.574l2.95,-2.704l9.556,10.426l20.524,-21.456l2.89,2.764z" fill="#2dea55"></path><path d="M43.853,11.878l-3.031,2.652c1.998,3.006 3.178,6.598 3.178,10.47c0,10.477 -8.523,19 -19,19c-10.477,0 -19,-8.523 -19,-19c0,-10.477 8.523,-19 19,-19c4.39,0 8.426,1.511 11.647,4.021l2.785,-2.912c-3.949,-3.192 -8.97,-5.109 -14.432,-5.109c-12.683,0 -23,10.318 -23,23c0,12.682 10.317,23 23,23c12.683,0 23,-10.318 23,-23c0,-4.879 -1.544,-9.396 -4.147,-13.122z" fill="#5850dd"></path><path d="M42.367,9.951l-2.779,2.905c0.875,1.049 1.627,2.199 2.263,3.42l2.9,-3.032c-0.699,-1.168 -1.497,-2.27 -2.384,-3.293z" fill="#0cbc35"></path></g></g></svg>